<?xml version="1.0" encoding="UTF-8"?>
<svg width="23px" height="23px" viewBox="0 0 23 23" version="1.1" xmlns="http://www.w3.org/2000/svg" xmlns:xlink="http://www.w3.org/1999/xlink">
    <title>Group 36</title>
    <defs>
        <circle id="path-1" cx="9.5" cy="9.5" r="9.5"></circle>
        <filter x="-18.4%" y="-13.2%" width="136.8%" height="136.8%" filterUnits="objectBoundingBox" id="filter-2">
            <feOffset dx="0" dy="1" in="SourceAlpha" result="shadowOffsetOuter1"></feOffset>
            <feGaussianBlur stdDeviation="1" in="shadowOffsetOuter1" result="shadowBlurOuter1"></feGaussianBlur>
            <feColorMatrix values="0 0 0 0 0   0 0 0 0 0   0 0 0 0 0  0 0 0 0.197716346 0" type="matrix" in="shadowBlurOuter1"></feColorMatrix>
        </filter>
    </defs>
    <g id="EcoDechets-V2" stroke="none" stroke-width="1" fill="none" fill-rule="evenodd">
        <g id="Fiche-employé-V2" transform="translate(-173.000000, -379.000000)">
            <g id="Group-7" transform="translate(149.000000, 354.000000)">
                <g id="Group-36" transform="translate(26.000000, 26.000000)">
                    <g id="Oval">
                        <use fill="black" fill-opacity="1" filter="url(#filter-2)" xlink:href="#path-1"></use>
                        <use fill="#DCECDD" fill-rule="evenodd" xlink:href="#path-1"></use>
                    </g>
                    <path d="M5.10384615,9.96 C5.03461538,9.888 5,9.78 5,9.708 C5,9.636 5.03461538,9.528 5.10384615,9.456 L5.58846154,8.952 C5.72692308,8.808 5.93461538,8.808 6.07307692,8.952 L6.10769231,8.988 L8.01153846,11.112 C8.08076923,11.184 8.18461538,11.184 8.25384615,11.112 L12.8923077,6.108 L12.9269231,6.108 L12.9269231,6.108 C13.0653846,5.964 13.2730769,5.964 13.4115385,6.108 L13.8961538,6.612 C14.0346154,6.756 14.0346154,6.972 13.8961538,7.116 L13.8961538,7.116 L8.35769231,13.092 C8.28846154,13.164 8.21923077,13.2 8.11538462,13.2 C8.01153846,13.2 7.94230769,13.164 7.87307692,13.092 L5.17307692,10.068 L5.10384615,9.96 Z" id="Path" fill="#494B68"></path>
                </g>
            </g>
        </g>
    </g>
</svg>