<?xml version="1.0" encoding="UTF-8"?>
<svg width="20px" height="5px" viewBox="0 0 20 5" version="1.1" xmlns="http://www.w3.org/2000/svg" xmlns:xlink="http://www.w3.org/1999/xlink">
    <title>Group 8</title>
    <defs>
        <polygon id="path-1" points="0.0133170732 0 4.40341463 0 4.40341463 4.3902439 0.0133170732 4.3902439"></polygon>
    </defs>
    <g id="Symbols" stroke="none" stroke-width="1" fill="none" fill-rule="evenodd">
        <g id="Right-bar-2" transform="translate(-281.000000, -177.000000)">
            <g id="Group" transform="translate(40.000000, 39.000000)">
                <g id="Group-26" transform="translate(1.000000, 131.000000)">
                    <g id="Group-8" transform="translate(240.000000, 7.000000)">
                        <g id="Group-3" transform="translate(15.121951, 0.000000)">
                            <mask id="mask-2" fill="white">
                                <use xlink:href="#path-1"></use>
                            </mask>
                            <g id="Clip-2"></g>
                            <path d="M2.20843902,4.3902439 C0.998195122,4.3902439 0.0133170732,3.40536585 0.0133170732,2.19512195 C0.0133170732,0.984878049 0.998195122,0 2.20843902,0 C3.41868293,0 4.40356098,0.984878049 4.40356098,2.19512195 C4.40356098,3.40536585 3.41868293,4.3902439 2.20843902,4.3902439" id="Fill-1" fill="#2C3149" mask="url(#mask-2)"></path>
                        </g>
                        <path d="M9.76278049,4.3902439 C8.55253659,4.3902439 7.56765854,3.40536585 7.56765854,2.19512195 C7.56765854,0.984878049 8.55253659,0 9.76278049,0 C10.9730244,0 11.9579024,0.984878049 11.9579024,2.19512195 C11.9579024,3.40536585 10.9730244,4.3902439 9.76278049,4.3902439" id="Fill-4" fill="#2C3149"></path>
                        <path d="M2.19512195,4.3902439 C0.984878049,4.3902439 0,3.40536585 0,2.19512195 C0,0.984878049 0.984878049,0 2.19512195,0 C3.40536585,0 4.3902439,0.984878049 4.3902439,2.19512195 C4.3902439,3.40536585 3.40536585,4.3902439 2.19512195,4.3902439" id="Fill-6" fill="#2C3149"></path>
                    </g>
                </g>
            </g>
        </g>
    </g>
</svg>