<?xml version="1.0" encoding="UTF-8"?>
<svg width="13px" height="15px" viewBox="0 0 13 15" version="1.1" xmlns="http://www.w3.org/2000/svg" xmlns:xlink="http://www.w3.org/1999/xlink">
    <title>Fill 1</title>
    <g id="EcoDechets-V2" stroke="none" stroke-width="1" fill="none" fill-rule="evenodd">
        <g id="Fiche-employé-V2" transform="translate(-566.000000, -1928.000000)" fill="#6D5DA9">
            <g id="Group-19" transform="translate(566.000000, 1927.000000)">
                <path d="M9.90961538,14.8461538 L2.11538462,14.8461538 C1.585,14.8461538 1.15384615,14.4146154 1.15384615,13.8846154 L1.15384615,3.11538462 C1.15384615,2.58538462 1.585,2.15384615 2.11538462,2.15384615 L6.29653846,2.15384615 L6.29653846,4.93884615 C6.29653846,5.89346154 7.07307692,6.66961538 8.02730769,6.66961538 L10.8711538,6.66961538 L10.8711538,13.8846154 C10.8711538,14.4146154 10.44,14.8461538 9.90961538,14.8461538 L9.90961538,14.8461538 Z M10.6230769,5.51576923 L8.02730769,5.51576923 C7.70923077,5.51576923 7.45038462,5.25692308 7.45038462,4.93884615 L7.45038462,2.46692308 L10.6230769,5.51576923 Z M11.8476923,5.09269231 L7.75653846,1.16076923 C7.64923077,1.05769231 7.50615385,1 7.35692308,1 L2.11538462,1 C0.949230769,1 0,1.94884615 0,3.11538462 L0,13.8846154 C0,15.0511538 0.949230769,16 2.11538462,16 L9.90961538,16 C11.0757692,16 12.025,15.0511538 12.025,13.8846154 L12.025,5.50846154 C12.025,5.35153846 11.9611538,5.20115385 11.8476923,5.09269231 L11.8476923,5.09269231 Z" id="Fill-1"></path>
            </g>
        </g>
    </g>
</svg>