<?xml version="1.0" encoding="UTF-8"?>
<svg width="16px" height="15px" viewBox="0 0 16 15" version="1.1" xmlns="http://www.w3.org/2000/svg" xmlns:xlink="http://www.w3.org/1999/xlink">
    <title>Combined Shape</title>
    <g id="EcoDechets-V2" stroke="none" stroke-width="1" fill="none" fill-rule="evenodd">
        <g id="Listing-employé-V2" transform="translate(-173.000000, -241.000000)" fill="#494B68">
            <g id="Group-12" transform="translate(173.000000, 239.000000)">
                <path d="M3.02200223,11.6930188 C2.69516614,11.6930188 2.42990787,11.9578824 2.42990787,12.2851132 L2.42990787,16.4076688 C2.42990787,16.7348996 2.69516614,16.9997632 3.02200223,16.9997632 C3.34883831,16.9997632 3.61409658,16.7348996 3.61409658,16.4076688 L3.61409658,12.2851132 C3.61409658,11.9578824 3.34883831,11.6930188 3.02200223,11.6930188 M13.5158484,12.7463152 C13.1890123,12.7463152 12.923754,13.0111787 12.923754,13.3384096 L12.923754,16.4078267 C12.923754,16.7346628 13.1890123,16.9999211 13.5158484,16.9999211 C13.8426845,16.9999211 14.1079427,16.7346628 14.1079427,16.4078267 L14.1079427,13.3384096 C14.1079427,13.0111787 13.8426845,12.7463152 13.5158484,12.7463152 M8.26910294,4.56511064 C8.59593902,4.56511064 8.86119729,4.3002471 8.86119729,3.97301629 L8.86119729,2.59225225 C8.86119729,2.26502143 8.59593902,2.00015789 8.26910294,2.00015789 C7.94226685,2.00015789 7.67700858,2.26502143 7.67700858,2.59225225 L7.67700858,3.97301629 C7.67700858,4.3002471 7.94226685,4.56511064 8.26910294,4.56511064 M4.24625599,9.22710371 L3.61389922,9.22710371 L3.61389922,2.59209436 C3.61389922,2.26525827 3.34903568,2 3.02180486,2 C2.69496878,2 2.42971051,2.26525827 2.42971051,2.59209436 L2.42971051,9.22710371 L1.59209436,9.22710371 C1.26525827,9.22710371 1,9.49196725 1,9.81919807 C1,10.1464289 1.26525827,10.4112924 1.59209436,10.4112924 L4.24625599,10.4112924 C4.57309207,10.4112924 4.83835035,10.1464289 4.83835035,9.81919807 C4.83835035,9.49196725 4.57309207,9.22710371 4.24625599,9.22710371 M14.8430476,10.2968208 L14.1080612,10.2968208 L14.1080612,2.59209436 C14.1080612,2.26525827 13.8428029,2 13.5159668,2 C13.1891307,2 12.9238725,2.26525827 12.9238725,2.59209436 L12.9238725,10.2968208 L12.188886,10.2968208 C11.8620499,10.2968208 11.5967916,10.5616844 11.5967916,10.8889152 C11.5967916,11.216146 11.8620499,11.4810096 12.188886,11.4810096 L14.8430476,11.4810096 C15.1698837,11.4810096 15.435142,11.216146 15.435142,10.8889152 C15.435142,10.5616844 15.1698837,10.2968208 14.8430476,10.2968208 M9.59594692,5.6136308 L6.94178528,5.6136308 C6.6149492,5.6136308 6.34969093,5.87849434 6.34969093,6.20572516 C6.34969093,6.53295597 6.6149492,6.79781951 6.94178528,6.79781951 L7.67716647,6.79781951 L7.67716647,16.4079056 C7.67716647,16.7347417 7.94242474,17 8.26926083,17 C8.59609691,17 8.86135519,16.7347417 8.86135519,16.4079056 L8.86135519,6.79781951 L9.59594692,6.79781951 C9.922783,6.79781951 10.1880413,6.53295597 10.1880413,6.20572516 C10.1880413,5.87849434 9.922783,5.6136308 9.59594692,5.6136308" id="Combined-Shape" transform="translate(8.217571, 9.500000) rotate(-270.000000) translate(-8.217571, -9.500000) "></path>
            </g>
        </g>
    </g>
</svg>