<?xml version="1.0" encoding="UTF-8"?>
<svg width="19px" height="19px" viewBox="0 0 19 19" version="1.1" xmlns="http://www.w3.org/2000/svg" xmlns:xlink="http://www.w3.org/1999/xlink">
    <title>Combined Shape</title>
    <g id="EcoDechets-V2" stroke="none" stroke-width="1" fill="none" fill-rule="evenodd">
        <g id="Homepage-V2" transform="translate(-141.000000, -325.000000)" fill="#494B68">
            <g id="Group-11" transform="translate(131.000000, 315.000000)">
                <path d="M19.5,10 C24.7383724,10 29,14.2616276 29,19.5 C29,24.7378852 24.7383724,28.9995128 19.5,28.9995128 C14.2616276,28.9995128 10,24.7378852 10,19.5 C10,14.2616276 14.2616276,10 19.5,10 Z M20.2303063,11.494345 L20.2307318,15.4774191 C20.2307318,15.8812702 19.9033639,16.2081509 19.5,16.2081509 C19.0966361,16.2081509 18.7692682,15.8812702 18.7692682,15.4774191 L18.7696937,11.494345 C14.9185961,11.8427235 11.8427235,14.9185961 11.494345,18.7696937 L15.4771755,18.7692682 C15.8805395,18.7692682 16.2079073,19.0961489 16.2079073,19.5 C16.2079073,19.9038511 15.8805395,20.2307318 15.4771755,20.2307318 L11.494345,20.230302 C11.8427235,24.0813541 14.9185961,27.1568391 18.7696937,27.5051722 L18.7692682,23.5226783 C18.7692682,23.1188272 19.0966361,22.7919466 19.5,22.7919466 C19.9033639,22.7919466 20.2307318,23.1188272 20.2307318,23.5226783 L20.2303063,27.5051722 C24.0814039,27.1568391 27.1572765,24.0813541 27.505655,20.230302 L23.5224347,20.2307318 C23.1190708,20.2307318 22.791703,19.9038511 22.791703,19.5 C22.791703,19.0961489 23.1190708,18.7692682 23.5224347,18.7692682 L27.505655,18.7696937 C27.1572765,14.9185961 24.0814039,11.8427235 20.2303063,11.494345 Z" id="Combined-Shape"></path>
            </g>
        </g>
    </g>
</svg>