<?xml version="1.0" encoding="UTF-8"?>
<svg width="15px" height="19px" viewBox="0 0 15 19" version="1.1" xmlns="http://www.w3.org/2000/svg" xmlns:xlink="http://www.w3.org/1999/xlink">
    <title>Fill 1</title>
    <g id="Symbols" stroke="none" stroke-width="1" fill="none" fill-rule="evenodd">
        <g id="nav-left-" transform="translate(-38.000000, -451.000000)" fill="#494B68">
            <g id="Group-6" transform="translate(19.000000, 374.000000)">
                <path d="M19.7307692,96 C19.3273846,96 19,95.6726154 19,95.2692308 L19,80.6538462 C19,78.6388718 20.6388718,77 22.6538462,77 L33.1028718,77 C33.3537692,77 33.586641,77.1286154 33.7206154,77.3400513 C33.8545897,77.5519744 33.8706667,77.8174872 33.7634872,78.0440256 L31.5750769,82.6571282 L33.7634872,87.2707179 C33.8706667,87.4972564 33.8545897,87.7627692 33.7206154,87.9742051 C33.586641,88.1861282 33.3537692,88.3147436 33.1028718,88.3147436 L23.3909487,88.3147436 C22.9875641,88.3147436 22.6601795,87.987359 22.6601795,87.5839744 C22.6601795,87.1801026 22.9875641,86.8532051 23.3909487,86.8532051 L31.9477692,86.8532051 L30.1062308,82.9703846 C30.0122051,82.7725897 30.0122051,82.5421538 30.1062308,82.344359 L31.9477692,78.4615385 L22.6538462,78.4615385 C21.4451538,78.4615385 20.4615385,79.4451538 20.4615385,80.6538462 L20.4615385,95.2692308 C20.4615385,95.6726154 20.1341538,96 19.7307692,96" id="Fill-1"></path>
            </g>
        </g>
    </g>
</svg>