<?xml version="1.0" encoding="UTF-8"?>
<svg width="19px" height="19px" viewBox="0 0 19 19" version="1.1" xmlns="http://www.w3.org/2000/svg" xmlns:xlink="http://www.w3.org/1999/xlink">
    <title>Fill 1</title>
    <g id="EcoDechets-V2" stroke="none" stroke-width="1" fill="none" fill-rule="evenodd">
        <g id="Homepage-V2" transform="translate(-554.000000, -327.000000)" fill="#494B68">
            <g id="Group-10" transform="translate(544.000000, 317.000000)">
                <path d="M19.530072,27.1379606 C19.5542287,27.1774001 19.5665536,27.2212766 19.5665536,27.269097 C19.5665536,27.4081214 19.4536579,27.5210171 19.3146335,27.5210171 C19.1761021,27.5210171 19.0632064,27.4081214 19.0632064,27.269097 C19.0632064,27.2232486 19.0745453,27.1798651 19.097223,27.1419045 C19.1125058,27.1157758 19.1228587,27.0876751 19.1346906,27.0610535 L19.4926044,27.0610535 C19.5044363,27.0866892 19.5147892,27.1128179 19.530072,27.1379606 M28.4527757,25.8413856 C27.125635,24.2859886 26.4526978,22.1675921 26.4526978,19.5453555 L26.4526978,17.4575246 C26.4526978,13.3454593 23.2506999,10 19.3146335,10 C17.3347684,10 15.4934347,10.8277374 14.1317845,12.329891 C13.8571867,12.6325895 13.8803574,13.1004411 14.1825629,13.3745459 C14.4847684,13.6486508 14.953113,13.625973 15.2272178,13.3232745 C16.3053963,12.1341723 17.7572645,11.4789829 19.3146335,11.4789829 C22.4352874,11.4789829 24.973715,14.1608718 24.973715,17.4575246 L24.973715,19.5453555 C24.973715,21.9092631 25.4711462,23.9330047 26.4541768,25.5820706 L12.1755831,25.5820706 C13.1586138,23.9325117 13.655552,21.9092631 13.655552,19.5453555 L13.655552,17.4575246 C13.655552,16.6756357 13.7965484,15.9149455 14.0745972,15.1971458 C14.2215095,14.8160612 14.0321997,14.3876492 13.6511151,14.2407369 C13.2729884,14.0938246 12.8426044,14.2821484 12.6947061,14.663233 C12.3505961,15.5521017 12.1765691,16.4922418 12.1765691,17.4575246 L12.1765691,19.5453555 C12.1765691,22.1675921 11.5041249,24.2859886 10.1764913,25.8413856 C9.98964646,26.060768 9.94724895,26.3693825 10.0680326,26.6311624 C10.1888162,26.8929424 10.4510891,27.0610535 10.7394908,27.0610535 L17.5980274,27.0610535 C17.5896465,27.1295797 17.5842235,27.1995848 17.5842235,27.269097 C17.5842235,28.223534 18.3606895,29 19.3146335,29 C20.2690704,29 21.0455364,28.223534 21.0455364,27.269097 C21.0455364,27.1990919 21.0396205,27.1295797 21.0312396,27.0610535 L27.8902692,27.0610535 C28.1786709,27.0610535 28.4409438,26.8929424 28.5617274,26.6311624 C28.682511,26.3688895 28.6401135,26.060768 28.4527757,25.8413856" id="Fill-1"></path>
            </g>
        </g>
    </g>
</svg>