<?xml version="1.0" encoding="UTF-8"?>
<svg width="19px" height="19px" viewBox="0 0 19 19" version="1.1" xmlns="http://www.w3.org/2000/svg" xmlns:xlink="http://www.w3.org/1999/xlink">
    <title>Combined Shape</title>
    <g id="Symbols" stroke="none" stroke-width="1" fill="none" fill-rule="evenodd">
        <g id="nav-left-" transform="translate(-36.000000, -511.000000)" fill="#494B68">
            <g id="Group-6" transform="translate(19.000000, 374.000000)">
                <path d="M26.8796533,137.124598 L35.6782858,143.063354 C35.8788078,143.19879 35.9995104,143.42533 35.9999985,143.667947 C36.0004838,143.910564 35.8802679,144.137591 35.6802326,144.274002 L32.392,146.507 L35.6782371,148.724902 C35.8787591,148.860826 35.9994617,149.087366 35.9999499,149.329983 C36.0004351,149.5726 35.8802192,149.79914 35.680184,149.935551 L26.9384958,155.87382 C26.8143864,155.958102 26.6712954,156 26.5282045,156 C26.3856003,156 26.2434827,155.958589 26.1198599,155.875281 L17.3217142,149.937013 C17.1211922,149.801089 17.0004896,149.574549 17.0000015,149.331932 C16.9995162,149.089315 17.1197321,148.862775 17.3197674,148.726364 L19.3293676,147.361766 C19.6632465,147.135713 20.1163678,147.221944 20.3431718,147.555664 C20.5694891,147.889872 20.4823691,148.344413 20.1489769,148.570953 L19.032965,149.329009 L26.5267444,154.386938 L33.9669864,149.332906 L31.089,147.391 L26.9384958,150.211979 C26.8143864,150.296261 26.6712954,150.338159 26.5282045,150.338159 C26.3856003,150.338159 26.2434827,150.296748 26.1198599,150.21344 L21.5025004,147.096933 L17.3217629,144.274977 C17.1212409,144.13954 17.0005383,143.912513 17.0000501,143.670383 C16.9995649,143.427766 17.1197808,143.200739 17.319816,143.064328 L26.0610174,137.12606 C26.3087497,136.958469 26.6319211,136.957982 26.8796533,137.124598 Z M26.4727689,138.612941 L19.0330136,143.66746 L22.3045427,145.875225 C22.3094492,145.878358 22.3143318,145.881558 22.3191895,145.884823 L26.5267444,148.725097 L30.678815,145.90431 L33.967035,143.67087 L26.4727689,138.612941 Z" id="Combined-Shape"></path>
            </g>
        </g>
    </g>
</svg>