<?xml version="1.0" encoding="UTF-8"?>
<svg width="18px" height="13px" viewBox="0 0 18 13" version="1.1" xmlns="http://www.w3.org/2000/svg" xmlns:xlink="http://www.w3.org/1999/xlink">
    <title>Fill 1</title>
    <g id="Symbols" stroke="none" stroke-width="1" fill="none" fill-rule="evenodd">
        <g id="Right-bar-2" transform="translate(-74.000000, -333.000000)" fill="#6D5DA9">
            <g id="Group" transform="translate(40.000000, 39.000000)">
                <g id="Group-26" transform="translate(1.000000, 131.000000)">
                    <g id="Group-13" transform="translate(0.000000, 129.000000)">
                        <path d="M50.9999969,40.4636154 C50.9999969,40.4146923 50.9949236,40.369 50.9861544,40.3242308 C50.9593851,40.1917692 50.8943082,40.069 50.7973851,39.9720769 L45.0281544,34.2028462 C44.7576928,33.9323846 44.3192313,33.9323846 44.0487697,34.2028462 C43.7787697,34.4733077 43.7787697,34.9117692 44.0487697,35.1817692 L48.6364621,39.769 L33.6932313,39.7537692 C33.3101544,39.7537692 33.0004621,40.063 32.9999969,40.4451538 C32.999539,40.8277692 33.3092313,41.1379231 33.6913851,41.1383846 L48.6364621,41.1536154 L44.0487697,45.7408462 C43.7787697,46.0113077 43.7787697,46.4493077 44.0487697,46.7197692 C44.1840005,46.855 44.3612313,46.9228462 44.5384621,46.9228462 C44.7156928,46.9228462 44.8929236,46.855 45.0281544,46.7197692 L50.7872313,40.9611538 C50.8869236,40.8646923 50.9584621,40.7391538 50.9866159,40.5979231 C50.9903082,40.5799231 50.9898467,40.561 50.9916928,40.5425385 C50.9949236,40.5166923 50.9999969,40.4908462 50.9999969,40.4636154 Z" id="Fill-1"></path>
                    </g>
                </g>
            </g>
        </g>
    </g>
</svg>