<?xml version="1.0" encoding="UTF-8"?>
<svg width="18px" height="18px" viewBox="0 0 18 18" version="1.1" xmlns="http://www.w3.org/2000/svg" xmlns:xlink="http://www.w3.org/1999/xlink">
    <title>Combined Shape</title>
    <g id="Symbols" stroke="none" stroke-width="1" fill="none" fill-rule="evenodd">
        <g id="Right-bar-2" transform="translate(-74.000000, -420.000000)" fill="#6D5DA9">
            <g id="Group" transform="translate(40.000000, 39.000000)">
                <g id="Group-26" transform="translate(1.000000, 131.000000)">
                    <g id="Group-14" transform="translate(0.000000, 219.000000)">
                        <path d="M45.0969487,32.0112885 C46.4460256,30.6626731 48.6401794,30.6631346 49.9874102,32.0112885 C51.335564,33.3594423 51.335564,35.5531346 49.9874102,36.9012885 L49.9874102,36.9012885 L39.3480256,47.5406731 C39.2584871,47.6306731 39.1454102,47.6939039 39.0221794,47.7239039 L39.0221794,47.7239039 L33.8561794,48.9788269 C33.8017179,48.9922115 33.7472564,48.9986731 33.6923333,48.9986731 C33.5114102,48.9986731 33.3341794,48.9271346 33.2031025,48.7955962 C33.0323333,48.6248269 32.962641,48.3774423 33.0194102,48.1429808 L33.0194102,48.1429808 L34.2743333,42.9765192 C34.3047948,42.8532885 34.3680256,42.7402115 34.4580256,42.6506731 L34.4580256,42.6506731 Z M50.3079487,47.6138269 C50.6901025,47.6138269 51.0002564,47.9235192 51.0002564,48.3061346 C51.0002564,48.68875 50.6901025,48.9984423 50.3079487,48.9984423 L50.3079487,48.9984423 L40.5981025,48.9984423 C40.2159487,48.9984423 39.9057948,48.68875 39.9057948,48.3061346 C39.9057948,47.9235192 40.2159487,47.6138269 40.5981025,47.6138269 L40.5981025,47.6138269 Z M49.0084871,32.9902115 C48.1998717,32.1820577 46.8844871,32.1820577 46.0758717,32.9902115 L46.0758717,32.9902115 L35.5744871,43.4920577 L34.9352564,46.1232885 L35.8721794,47.0643654 L38.506641,46.4242115 L47.1858717,37.7449808 C47.1332564,37.7149808 47.0783333,37.6886731 47.033564,37.6434423 L47.033564,37.6434423 L44.9031025,35.5134423 C44.6331025,35.2434423 44.6331025,34.8049808 44.9031025,34.5345192 C45.173564,34.2640577 45.6120256,34.2640577 45.8824871,34.5345192 L45.8824871,34.5345192 L48.0124871,36.6645192 C48.0572564,36.70975 48.083564,36.7642115 48.1140256,36.8172885 L48.1140256,36.8172885 L49.0084871,35.9223654 C49.816641,35.1142115 49.816641,33.7988269 49.0084871,32.9902115 Z" id="Combined-Shape"></path>
                    </g>
                </g>
            </g>
        </g>
    </g>
</svg>