<?xml version="1.0" encoding="UTF-8"?>
<svg width="20px" height="19px" viewBox="0 0 20 19" version="1.1" xmlns="http://www.w3.org/2000/svg" xmlns:xlink="http://www.w3.org/1999/xlink">
    <title>Combined Shape</title>
    <g id="Symbols" stroke="none" stroke-width="1" fill="none" fill-rule="evenodd">
        <g id="Right-bar" transform="translate(-210.000000, -966.000000)" fill="#494B68">
            <g id="Group-9" transform="translate(111.000000, 966.000000)">
                <path d="M108.930639,-3.55271368e-15 C109.353393,-3.55271368e-15 109.696498,0.343104844 109.696498,0.765859026 C109.696498,1.18912378 109.353393,1.53171805 108.930639,1.53171805 L108.930639,1.53171805 L101.297577,1.53171805 C100.875333,1.53171805 100.531718,1.87533347 100.531718,2.29757708 L100.531718,2.29757708 L100.531718,16.082529 C100.531718,16.5047726 100.875333,16.848388 101.297577,16.848388 L101.297577,16.848388 L108.930639,16.848388 C109.353393,16.848388 109.696498,17.1909823 109.696498,17.614247 C109.696498,18.0375118 109.353393,18.380106 108.930639,18.380106 L108.930639,18.380106 L101.297577,18.380106 C100.030336,18.380106 99,17.3492598 99,16.082529 L99,16.082529 L99,2.29757708 C99,1.03084625 100.030336,-3.55271368e-15 101.297577,-3.55271368e-15 L101.297577,-3.55271368e-15 Z M111.876235,2.83235091 C112.17543,2.53315531 112.659964,2.53315531 112.959159,2.83235091 L112.959159,2.83235091 L118.775603,8.64879492 C119.074799,8.94799051 119.074799,9.43303456 118.775603,9.73171958 L118.775603,9.73171958 L112.959159,15.5481636 C112.809561,15.6977614 112.614012,15.772305 112.417952,15.772305 C112.221892,15.772305 112.025832,15.6977614 111.876235,15.5481636 C111.577039,15.248968 111.577039,14.763924 111.876235,14.4652389 L111.876235,14.4652389 L116.385613,9.95586099 L107.249425,9.95586099 C106.826671,9.95586099 106.483566,9.61326672 106.483566,9.19000197 C106.483566,8.76673721 106.826671,8.42414294 107.249425,8.42414294 L107.249425,8.42414294 L116.384591,8.42414294 L111.876235,3.91527557 C111.577039,3.61607998 111.577039,3.13103593 111.876235,2.83235091 Z" id="Combined-Shape"></path>
            </g>
        </g>
    </g>
</svg>