<?xml version="1.0" encoding="UTF-8"?>
<svg width="22px" height="19px" viewBox="0 0 22 19" version="1.1" xmlns="http://www.w3.org/2000/svg" xmlns:xlink="http://www.w3.org/1999/xlink">
    <title>Combined Shape</title>
    <g id="Symbols" stroke="none" stroke-width="1" fill="none" fill-rule="evenodd">
        <g id="nav-left-" transform="translate(-34.000000, -570.000000)" fill="#494B68">
            <g id="Group-6" transform="translate(19.000000, 374.000000)">
                <path d="M16.5673033,207.081096 C16.5673033,207.514194 16.2162274,207.864747 15.7836517,207.864747 C15.3510759,207.864747 15,207.514194 15,207.081096 C15,204.889884 16.3526462,203.008854 18.2668516,202.229094 C17.6497256,201.567954 17.2717539,200.680276 17.2717539,199.70615 C17.2717539,197.662386 18.9346627,196 20.9784262,196 C23.0216673,196 24.6845761,197.662386 24.6845761,199.70615 C24.6845761,200.772842 24.2313579,201.735876 23.5074126,202.412761 C23.9207164,202.620209 24.3068142,202.885139 24.6545629,203.200224 C25.2556681,201.373477 26.9787856,200.051427 29.0046909,200.051427 C31.5311838,200.051427 33.5864409,202.106684 33.5864409,204.632654 C33.5864409,205.98113 33.0007129,207.195457 32.0702506,208.034563 C34.6031197,208.944762 36.4198118,211.372386 36.4198118,214.216348 C36.4198118,214.649446 36.0687359,215 35.6361602,215 C35.2035845,215 34.8525085,214.649446 34.8525085,214.216348 C34.8525085,211.457895 32.6081302,209.214039 29.8501988,209.214039 L28.0410084,209.214039 C25.283077,209.214039 23.0386986,211.457895 23.0386986,214.216348 C23.0386986,214.649446 22.6876227,215 22.255047,215 C21.8224713,215 21.4713953,214.649446 21.4713953,214.216348 C21.4713953,211.34044 23.3288013,208.890276 25.907034,208.002436 C25.0718253,207.237147 24.5215473,206.163856 24.4353355,204.964192 L24.5222035,204.968893 C24.3012137,204.968893 24.0817912,204.8759 23.9266282,204.695138 C23.2276109,203.879617 22.211476,203.412039 21.1389181,203.412039 L20.2363603,203.412039 C18.2129718,203.412039 16.5673033,205.057707 16.5673033,207.081096 Z M29.0046909,201.61873 C27.342827,201.61873 25.9907667,202.97079 25.9907667,204.632654 C25.9907667,206.294518 27.342827,207.646579 29.0046909,207.646579 C30.6670773,207.646579 32.0191376,206.294518 32.0191376,204.632654 C32.0191376,202.97079 30.6670773,201.61873 29.0046909,201.61873 Z M20.9784262,197.567303 C19.7987693,197.567303 18.8390572,198.526493 18.8390572,199.70615 C18.8390572,200.885284 19.7987693,201.844996 20.9784262,201.844996 C22.1575607,201.844996 23.1172728,200.885284 23.1172728,199.70615 C23.1172728,198.526493 22.1575607,197.567303 20.9784262,197.567303 Z" id="Combined-Shape"></path>
            </g>
        </g>
    </g>
</svg>