<?xml version="1.0" encoding="UTF-8"?>
<svg width="18px" height="18px" viewBox="0 0 18 18" version="1.1" xmlns="http://www.w3.org/2000/svg" xmlns:xlink="http://www.w3.org/1999/xlink">
    <title>Combined Shape</title>
    <g id="Symbols" stroke="none" stroke-width="1" fill="none" fill-rule="evenodd">
        <g id="Right-bar-2" transform="translate(-74.000000, -510.000000)" fill="#6D5DA9">
            <g id="Group" transform="translate(40.000000, 39.000000)">
                <g id="Group-26" transform="translate(1.000000, 131.000000)">
                    <g id="Group-25" transform="translate(0.000000, 309.000000)">
                        <path d="M43.5650769,31 C43.9472308,31 44.2573846,31.3096923 44.2573846,31.6923077 L44.2573846,31.6923077 L44.2573846,33.6958462 C44.4623077,33.7696923 44.6635385,33.8536923 44.8606154,33.9473846 L44.8606154,33.9473846 L46.2789231,32.5295385 C46.4086154,32.3998462 46.5849231,32.3264615 46.7681538,32.3264615 C46.9518462,32.3264615 47.1276923,32.3998462 47.2578462,32.5295385 L47.2578462,32.5295385 L49.4704615,34.7421538 C49.7404615,35.0126154 49.7404615,35.4506154 49.4704615,35.7210769 L49.4704615,35.7210769 L48.0521538,37.1398462 C48.1444615,37.336 48.2275385,37.5372308 48.3009231,37.7430769 L48.3009231,37.7430769 L50.3076923,37.7430769 C50.6898462,37.7430769 51,38.0527692 51,38.4353846 L51,38.4353846 L51,41.5646154 C51,41.9472308 50.6898462,42.2569231 50.3076923,42.2569231 L50.3076923,42.2569231 L48.3009231,42.2569231 C48.2275385,42.4623077 48.1444615,42.6635385 48.0521538,42.8596923 L48.0521538,42.8596923 L49.4704615,44.2784615 C49.7404615,44.5489231 49.7404615,44.9873846 49.4704615,45.2573846 L49.4704615,45.2573846 L47.2578462,47.47 C46.998,47.7298462 46.5383077,47.7298462 46.2789231,47.47 L46.2789231,47.47 L44.8606154,46.0521538 C44.6635385,46.1458462 44.4623077,46.2298462 44.2573846,46.3036923 L44.2573846,46.3036923 L44.2573846,48.3076923 C44.2573846,48.6898462 43.9472308,49 43.5650769,49 L43.5650769,49 L40.4353846,49 C40.0532308,49 39.7430769,48.6898462 39.7430769,48.3076923 L39.7430769,48.3076923 L39.7430769,46.3036923 C39.5381538,46.2298462 39.3369231,46.1458462 39.1398462,46.0521538 L39.1398462,46.0521538 L37.7215385,47.47 C37.4515385,47.7404615 37.0130769,47.7404615 36.7426154,47.47 L36.7426154,47.47 L34.5295385,45.2573846 C34.3998462,45.1276923 34.3269231,44.9513846 34.3269231,44.7676923 C34.3269231,44.584 34.3998462,44.4081538 34.5295385,44.2784615 L34.5295385,44.2784615 L35.9483077,42.8596923 C35.856,42.6635385 35.7729231,42.4623077 35.6995385,42.2569231 L35.6995385,42.2569231 L33.6923077,42.2569231 C33.3101538,42.2569231 33,41.9472308 33,41.5646154 L33,41.5646154 L33,38.4353846 C33,38.0527692 33.3101538,37.7430769 33.6923077,37.7430769 L33.6923077,37.7430769 L35.6995385,37.7430769 C35.7729231,37.5372308 35.856,37.336 35.9483077,37.1398462 L35.9483077,37.1398462 L34.5295385,35.7210769 C34.3998462,35.5913846 34.3269231,35.4155385 34.3269231,35.2318462 C34.3269231,35.0481538 34.3998462,34.8723077 34.5295385,34.7421538 L34.5295385,34.7421538 L36.7426154,32.5295385 C37.0130769,32.2590769 37.4515385,32.2590769 37.7215385,32.5295385 L37.7215385,32.5295385 L39.1398462,33.9473846 C39.3369231,33.8536923 39.5381538,33.7696923 39.7430769,33.6958462 L39.7430769,33.6958462 L39.7430769,31.6923077 C39.7430769,31.3096923 40.0532308,31 40.4353846,31 L40.4353846,31 Z M42.8727692,32.3846154 L41.1276923,32.3846154 L41.1276923,34.2026154 C41.1276923,34.5150769 40.9186154,34.7887692 40.6172308,34.8709231 C40.1778462,34.9904615 39.7532308,35.1672308 39.3558462,35.3966154 C39.0849231,35.5526154 38.742,35.5078462 38.5204615,35.2858462 L38.5204615,35.2858462 L37.2323077,33.9976923 L35.9981538,35.2318462 L37.2863077,36.52 C37.5078462,36.7410769 37.5530769,37.084 37.3966154,37.3549231 C37.1713846,37.7463077 36.996,38.1704615 36.876,38.6153846 C36.7947692,38.9176923 36.5206154,39.1276923 36.2076923,39.1276923 L36.2076923,39.1276923 L34.3846154,39.1276923 L34.3846154,40.8723077 L36.2076923,40.8723077 C36.5206154,40.8723077 36.7947692,41.0823077 36.876,41.3841538 C36.996,41.8295385 37.1713846,42.2532308 37.3966154,42.6446154 C37.5530769,42.916 37.5078462,43.2584615 37.2863077,43.4795385 L37.2863077,43.4795385 L35.9981538,44.7676923 L37.2323077,46.0018462 L38.5204615,44.7136923 C38.742,44.4916923 39.084,44.4473846 39.3558462,44.6029231 C39.7532308,44.8323077 40.1778462,45.0090769 40.6172308,45.1290769 C40.9186154,45.2107692 41.1276923,45.4844615 41.1276923,45.7969231 L41.1276923,45.7969231 L41.1276923,47.6153846 L42.8727692,47.6153846 L42.8727692,45.7969231 C42.8727692,45.4844615 43.0818462,45.2107692 43.3832308,45.1290769 C43.8226154,45.0090769 44.2472308,44.8323077 44.6446154,44.6029231 C44.9146154,44.4469231 45.258,44.4916923 45.48,44.7136923 L45.48,44.7136923 L46.7681538,46.0013846 L48.0018462,44.7676923 L46.7141538,43.4795385 C46.4926154,43.2584615 46.4473846,42.916 46.6038462,42.6446154 C46.8290769,42.2532308 47.0044615,41.8295385 47.1244615,41.3841538 C47.2056923,41.0823077 47.4798462,40.8723077 47.7927692,40.8723077 L47.7927692,40.8723077 L49.6153846,40.8723077 L49.6153846,39.1276923 L47.7927692,39.1276923 C47.4798462,39.1276923 47.2056923,38.9176923 47.1244615,38.6153846 C47.0044615,38.1704615 46.8290769,37.7463077 46.6038462,37.3549231 C46.4473846,37.084 46.4926154,36.7410769 46.7141538,36.52 L46.7141538,36.52 L48.0018462,35.2318462 L46.7681538,33.9981538 L45.48,35.2858462 C45.2584615,35.5078462 44.9164615,35.5526154 44.6446154,35.3966154 C44.2472308,35.1672308 43.8226154,34.9904615 43.3832308,34.8709231 C43.0818462,34.7887692 42.8727692,34.5150769 42.8727692,34.2026154 L42.8727692,34.2026154 L42.8727692,32.3846154 Z M42,36.6259231 C43.8604615,36.6259231 45.3743077,38.1397692 45.3743077,39.9997692 C45.3743077,41.8602308 43.8604615,43.3736154 42,43.3736154 C40.14,43.3736154 38.6261538,41.8602308 38.6261538,39.9997692 C38.6261538,38.1397692 40.14,36.6259231 42,36.6259231 Z M42,38.0105385 C40.9033846,38.0105385 40.0107692,38.9031538 40.0107692,39.9997692 C40.0107692,41.0968462 40.9033846,41.989 42,41.989 C43.0970769,41.989 43.9896923,41.0968462 43.9896923,39.9997692 C43.9896923,38.9031538 43.0970769,38.0105385 42,38.0105385 Z" id="Combined-Shape"></path>
                    </g>
                </g>
            </g>
        </g>
    </g>
</svg>