<?xml version="1.0" encoding="UTF-8"?>
<svg width="18px" height="18px" viewBox="0 0 18 18" version="1.1" xmlns="http://www.w3.org/2000/svg" xmlns:xlink="http://www.w3.org/1999/xlink">
    <title>Combined Shape</title>
    <g id="Symbols" stroke="none" stroke-width="1" fill="none" fill-rule="evenodd">
        <g id="Right-bar-2" transform="translate(-74.000000, -240.000000)" fill="#6D5DA9">
            <g id="Group" transform="translate(40.000000, 39.000000)">
                <g id="Group-26" transform="translate(1.000000, 131.000000)">
                    <g id="Group-12" transform="translate(0.000000, 39.000000)">
                        <path d="M42,31 C42.3821538,31 42.6923077,31.3096923 42.6923077,31.6923077 L42.692,39.307 L50.3076923,39.3076923 C50.6898462,39.3076923 51,39.6173846 51,40 C51,40.3826154 50.6898462,40.6923077 50.3076923,40.6923077 L42.692,40.692 L42.6923077,48.3076923 C42.6923077,48.6903077 42.3821538,49 42,49 C41.6178462,49 41.3076923,48.6903077 41.3076923,48.3076923 L41.307,40.692 L33.6923077,40.6923077 C33.3101538,40.6923077 33,40.3826154 33,40 C33,39.6173846 33.3101538,39.3076923 33.6923077,39.3076923 L41.307,39.307 L41.3076923,31.6923077 C41.3076923,31.3096923 41.6178462,31 42,31 Z" id="Combined-Shape"></path>
                    </g>
                </g>
            </g>
        </g>
    </g>
</svg>