<?xml version="1.0" encoding="UTF-8"?>
<svg width="19px" height="19px" viewBox="0 0 19 19" version="1.1" xmlns="http://www.w3.org/2000/svg" xmlns:xlink="http://www.w3.org/1999/xlink">
    <title>Combined Shape</title>
    <g id="Symbols" stroke="none" stroke-width="1" fill="none" fill-rule="evenodd">
        <g id="nav-left-" transform="translate(-35.000000, -631.000000)" fill="#494B68">
            <g id="Group-6" transform="translate(19.000000, 374.000000)">
                <path d="M34.1911189,257.257975 C34.4653544,257.320323 34.6791899,257.535133 34.7415383,257.809368 C35.5267385,261.272627 34.4989641,264.836227 31.993825,267.341854 L29.6927795,269.642412 L29.6469924,272.520667 C29.6318924,273.47489 29.252444,274.371635 28.5778148,275.046264 L27.8384018,275.786164 C27.6956824,275.928884 27.5086372,276 27.321592,276 C27.1345469,276 26.9475017,275.928884 26.8047823,275.786164 L25.2017466,274.183129 C24.9167949,273.89769 24.9167949,273.434948 25.2017466,273.149509 C25.4871853,272.864558 25.9499273,272.864558 26.2353661,273.149509 L27.321592,274.236222 L27.5446824,274.013132 C27.9494599,273.608354 28.1769341,273.070112 28.1857019,272.498261 L28.2363599,269.323851 C28.2397696,269.133883 28.3162438,268.952683 28.4501954,268.818731 L30.9606926,266.308721 C32.9982187,264.270221 33.8959382,261.415833 33.4083543,258.591646 C30.5827054,258.105036 27.7302663,259.000807 25.691766,261.039307 L23.1812688,263.549317 C23.0473172,263.683756 22.8661172,263.76023 22.6761494,263.76364 L19.5017392,263.813811 C18.9294004,263.823066 18.3916455,264.051027 17.9873551,264.455805 L17.7637777,264.678895 L18.8836133,265.798731 C19.1690521,266.084169 19.1690521,266.546911 18.8836133,266.831863 C18.5981746,267.117302 18.1359197,267.117302 17.8504809,266.831863 L16.2138355,265.194731 C16.0769613,265.057856 16,264.871785 16,264.678408 C16,264.484056 16.0769613,264.29896 16.2138355,264.161598 L16.9537356,263.422672 C17.6278777,262.747556 18.524623,262.368108 19.4788457,262.352521 L22.3575881,262.30722 L24.6586336,260.006175 C27.1647469,257.500549 30.7278603,256.474236 34.1911189,257.257975 Z M24.8417333,269.71158 C25.127172,269.997018 25.127172,270.459273 24.8417333,270.744712 L22.6025491,272.984383 C22.4598297,273.127103 22.2727845,273.198219 22.0857393,273.198219 C21.8986941,273.198219 21.7116489,273.127103 21.5689296,272.984383 C21.2839779,272.698945 21.2839779,272.236203 21.5689296,271.950764 L23.8086009,269.71158 C24.0940396,269.426141 24.5562945,269.426141 24.8417333,269.71158 Z M22.3217377,267.124754 C22.6071765,267.410193 22.6071765,267.872448 22.3217377,268.157887 L19.4483534,271.031758 C19.3056341,271.174478 19.1185889,271.245594 18.9315437,271.245594 C18.7444985,271.245594 18.5574533,271.174478 18.4147339,271.031758 C18.1297823,270.74632 18.1297823,270.283578 18.4147339,269.998139 L21.2886053,267.124754 C21.5740441,266.839316 22.036299,266.839316 22.3217377,267.124754 Z M28.4237461,261.396544 C28.6770364,261.710235 28.6283268,262.170541 28.3141493,262.424319 C28.287359,262.445751 28.2600815,262.469619 28.2347525,262.494948 C28.0306589,262.699041 27.9390847,262.979609 27.9819492,263.265535 C28.0072783,263.434557 28.106646,263.747274 28.4821977,263.945522 C28.7174655,264.069732 29.021901,264.069245 29.2576559,263.946009 C29.6332076,263.747274 29.7325753,263.434557 29.7579044,263.265535 C29.8007689,262.979609 29.7091947,262.699041 29.5051011,262.494948 C29.2196623,262.209509 29.2196623,261.747254 29.5051011,261.461815 C29.7905398,261.176376 30.2527947,261.176376 30.5382335,261.461815 C31.0662465,261.989341 31.3146659,262.745803 31.2026336,263.483754 C31.0896271,264.234858 30.6288335,264.874416 29.9395915,265.238277 C29.6098269,265.412171 29.2401204,265.499361 28.8699268,265.499361 C28.4997332,265.499361 28.1300267,265.412171 27.8002621,265.23779 C27.1110201,264.874416 26.6502265,264.234858 26.53722,263.483754 C26.4251877,262.745803 26.6736071,261.989341 27.2016201,261.461815 C27.2639685,261.399467 27.3292395,261.341502 27.3964588,261.287435 C27.7101492,261.035118 28.1699686,261.082854 28.4237461,261.396544 Z" id="Combined-Shape"></path>
            </g>
        </g>
    </g>
</svg>