<?xml version="1.0" encoding="UTF-8"?>
<svg width="19px" height="19px" viewBox="0 0 19 19" version="1.1" xmlns="http://www.w3.org/2000/svg" xmlns:xlink="http://www.w3.org/1999/xlink">
    <!-- Generator: Sketch 58 (84663) - https://sketch.com -->
    <title>3-6D5DA9</title>
    <desc>Created with Sketch.</desc>
    <g id="Symbols" stroke="none" stroke-width="1" fill="none" fill-rule="evenodd">
        <path d="M9.87965335,0.124598011 L18.6782858,6.0633537 C18.8788078,6.19879045 18.9995104,6.42533035 18.9999985,6.66794728 C19.0004838,6.91056421 18.8802679,7.13759129 18.6802326,7.27400241 L15.392,9.507 L18.6782371,11.7249025 C18.8787591,11.8608264 18.9994617,12.0873663 18.9999499,12.3299833 C19.0004351,12.5726002 18.8802192,12.7991401 18.680184,12.9355512 L9.93849585,18.8738197 C9.81438636,18.9581023 9.67129543,19 9.52820449,19 C9.38560026,19 9.24348273,18.9585895 9.11985995,18.8752813 L0.32171419,12.9370128 C0.121192198,12.8010888 0.000489639432,12.5745489 1.46334557e-06,12.331932 C-0.000483768297,12.0893151 0.119732086,11.8627752 0.319767374,11.726364 L2.32936763,10.3617656 C2.66324648,10.1357129 3.11636778,10.2219442 3.34317178,10.5556643 C3.56948908,10.8898715 3.48236909,11.3444129 3.14897694,11.5709528 L2.03296498,12.3290089 L9.52674438,17.3869385 L16.9669864,12.3329064 L14.089,10.391 L9.93849585,13.2119786 C9.81438636,13.2962612 9.67129543,13.3381589 9.52820449,13.3381589 C9.38560026,13.3381589 9.24348273,13.2967484 9.11985995,13.2134402 L4.50250039,10.0969332 L0.32176286,7.27497678 C0.121240868,7.13954002 0.000538309818,6.91251294 5.0133732e-05,6.67038319 C-0.000435097911,6.42776627 0.119780757,6.20073918 0.319816045,6.06432806 L9.06101745,0.126059559 C9.30874972,-0.0415312499 9.63192108,-0.0420184325 9.87965335,0.124598011 Z M9.47276892,1.6129408 L2.03301365,6.6674601 L5.30454268,8.87522469 C5.30944923,8.87835841 5.31433184,8.88155775 5.31918947,8.88482291 L9.52674438,11.7250974 L13.678815,8.90431021 L16.967035,6.67087038 L9.47276892,1.6129408 Z" id="3" fill="#6D5DA9"></path>
    </g>
</svg>