<?xml version="1.0" encoding="UTF-8"?>
<svg width="15px" height="19px" viewBox="0 0 15 19" version="1.1" xmlns="http://www.w3.org/2000/svg" xmlns:xlink="http://www.w3.org/1999/xlink">
    <!-- Generator: Sketch 58 (84663) - https://sketch.com -->
    <title>2-6D5DA9</title>
    <desc>Created with Sketch.</desc>
    <g id="Symbols" stroke="none" stroke-width="1" fill="none" fill-rule="evenodd">
        <path d="M0.730769231,19 C0.327384615,19 0,18.6726154 0,18.2692308 L0,3.65384615 C0,1.63887179 1.63887179,0 3.65384615,0 L14.1028718,0 C14.3537692,0 14.586641,0.128615385 14.7206154,0.340051282 C14.8545897,0.551974359 14.8706667,0.817487179 14.7634872,1.04402564 L12.5750769,5.65712821 L14.7634872,10.2707179 C14.8706667,10.4972564 14.8545897,10.7627692 14.7206154,10.9742051 C14.586641,11.1861282 14.3537692,11.3147436 14.1028718,11.3147436 L4.39094872,11.3147436 C3.9875641,11.3147436 3.66017949,10.987359 3.66017949,10.5839744 C3.66017949,10.1801026 3.9875641,9.85320513 4.39094872,9.85320513 L12.9477692,9.85320513 L11.1062308,5.97038462 C11.0122051,5.77258974 11.0122051,5.54215385 11.1062308,5.34435897 L12.9477692,1.46153846 L3.65384615,1.46153846 C2.44515385,1.46153846 1.46153846,2.44515385 1.46153846,3.65384615 L1.46153846,18.2692308 C1.46153846,18.6726154 1.13415385,19 0.730769231,19" id="2" fill="#6D5DA9"></path>
    </g>
</svg>