<?xml version="1.0" encoding="UTF-8"?>
<svg width="22px" height="19px" viewBox="0 0 22 19" version="1.1" xmlns="http://www.w3.org/2000/svg" xmlns:xlink="http://www.w3.org/1999/xlink">
    <!-- Generator: Sketch 58 (84663) - https://sketch.com -->
    <title>4-494B68</title>
    <desc>Created with Sketch.</desc>
    <g id="Symbols" stroke="none" stroke-width="1" fill="none" fill-rule="evenodd">
        <path d="M1.5673033,11.0810956 C1.5673033,11.5141937 1.21622736,11.8647472 0.783651652,11.8647472 C0.35107594,11.8647472 5.06261699e-14,11.5141937 5.06261699e-14,11.0810956 C5.06261699e-14,8.889884 1.35264617,7.00885441 3.26685159,6.22909371 C2.64972565,5.56795374 2.27175389,4.68027572 2.27175389,3.70614988 C2.27175389,1.66238637 3.9346627,4.97379915e-14 5.97842621,4.97379915e-14 C8.02166728,4.97379915e-14 9.68457609,1.66238637 9.68457609,3.70614988 C9.68457609,4.77294594 9.23126951,5.73606396 8.50720083,6.41295948 C8.92071644,6.62020946 9.30681424,6.88513913 9.65456293,7.20022352 C10.2556681,5.37347677 11.9787856,4.0514268 14.0046909,4.0514268 C16.5311838,4.0514268 18.5864409,6.10668386 18.5864409,8.63265435 C18.5864409,9.98113026 18.0007129,11.1954575 17.0702506,12.0345628 C19.6031197,12.9447621 21.4198118,15.3723859 21.4198118,18.2163483 C21.4198118,18.6494465 21.0687359,19 20.6361602,19 C20.2035845,19 19.8525085,18.6494465 19.8525085,18.2163483 C19.8525085,15.4578945 17.6081302,13.2140386 14.8501988,13.2140386 L13.0410084,13.2140386 C10.283077,13.2140386 8.03869864,15.4578945 8.03869864,18.2163483 C8.03869864,18.6494465 7.6876227,19 7.25504699,19 C6.82247128,19 6.47139534,18.6494465 6.47139534,18.2163483 C6.47139534,15.3404396 8.32880133,12.8902755 10.907034,12.0024355 C10.0718461,11.2369569 9.52158137,10.1639058 9.43534362,8.96430369 L9.52220346,8.96889315 C9.3012137,8.96889315 9.08179124,8.87589982 8.92662821,8.69513751 C8.22761093,7.87961736 7.21147596,7.41203854 6.13891807,7.41203854 L5.23636034,7.41203854 C3.21297177,7.41203854 1.5673033,9.05770701 1.5673033,11.0810956 Z M14.0046909,5.6187301 C12.342827,5.6187301 10.9907667,6.97079042 10.9907667,8.63265435 C10.9907667,10.2945183 12.342827,11.6465786 14.0046909,11.6465786 C15.6670773,11.6465786 17.0191376,10.2945183 17.0191376,8.63265435 C17.0191376,6.97079042 15.6670773,5.6187301 14.0046909,5.6187301 Z M5.97842621,1.5673033 C4.79876925,1.5673033 3.8390572,2.52649293 3.8390572,3.70614988 C3.8390572,4.8852844 4.79876925,5.84499645 5.97842621,5.84499645 C7.15756073,5.84499645 8.11727278,4.8852844 8.11727278,3.70614988 C8.11727278,2.52649293 7.15756073,1.5673033 5.97842621,1.5673033 Z" id="4" fill="#494B68"></path>
    </g>
</svg>