<?xml version="1.0" encoding="UTF-8"?>
<svg width="19px" height="19px" viewBox="0 0 19 19" version="1.1" xmlns="http://www.w3.org/2000/svg" xmlns:xlink="http://www.w3.org/1999/xlink">
    <!-- Generator: Sketch 58 (84663) - https://sketch.com -->
    <title>1-92AA8B</title>
    <desc>Created with Sketch.</desc>
    <g id="Symbols" stroke="none" stroke-width="1" fill="none" fill-rule="evenodd">
        <path d="M7.687151,10.5003419 C8.13535613,10.5003419 8.49911681,10.8641026 8.49911681,11.3123077 L8.49911681,18.1880342 C8.49911681,18.6367806 8.13535613,19 7.687151,19 L0.811965812,19 C0.363760684,19 -5.86197757e-14,18.6367806 -5.86197757e-14,18.1880342 L-5.86197757e-14,11.3123077 C-5.86197757e-14,10.8641026 0.363760684,10.5003419 0.811965812,10.5003419 L7.687151,10.5003419 Z M18.1880342,10.5003419 C18.6362393,10.5003419 19,10.8641026 19,11.3123077 L19,18.1880342 C19,18.6367806 18.6362393,19 18.1880342,19 L11.312849,19 C10.8646439,19 10.5008832,18.6367806 10.5008832,18.1880342 L10.5008832,11.3123077 C10.5008832,10.8641026 10.8646439,10.5003419 11.312849,10.5003419 L18.1880342,10.5003419 Z M6.87518519,12.1242735 L1.62393162,12.1242735 L1.62393162,17.3760684 L6.87518519,17.3760684 L6.87518519,12.1242735 Z M17.3760684,12.1242735 L12.1248148,12.1242735 L12.1248148,17.3760684 L17.3760684,17.3760684 L17.3760684,12.1242735 Z M7.687151,0 C8.13535613,0 8.49911681,0.363219373 8.49911681,0.811965812 L8.49911681,7.687151 C8.49911681,8.13589744 8.13535613,8.49911681 7.687151,8.49911681 L0.811965812,8.49911681 C0.363760684,8.49911681 0,8.13589744 0,7.687151 L0,0.811965812 C0,0.363219373 0.363760684,0 0.811965812,0 L7.687151,0 Z M18.1880342,-1.77635684e-15 C18.6362393,-1.77635684e-15 19,0.363219373 19,0.811965812 L19,7.687151 C19,8.13589744 18.6362393,8.49911681 18.1880342,8.49911681 L11.312849,8.49911681 C10.8646439,8.49911681 10.5008832,8.13589744 10.5008832,7.687151 L10.5008832,0.811965812 C10.5008832,0.363219373 10.8646439,-1.77635684e-15 11.312849,-1.77635684e-15 L18.1880342,-1.77635684e-15 Z M6.87518519,1.62393162 L1.62393162,1.62393162 L1.62393162,6.87518519 L6.87518519,6.87518519 L6.87518519,1.62393162 Z M17.3760684,1.62393162 L12.1248148,1.62393162 L12.1248148,6.87518519 L17.3760684,6.87518519 L17.3760684,1.62393162 Z" id="1" fill="#92AA8B"></path>
    </g>
</svg>