<?xml version="1.0" encoding="UTF-8"?>
<svg width="19px" height="19px" viewBox="0 0 19 19" version="1.1" xmlns="http://www.w3.org/2000/svg" xmlns:xlink="http://www.w3.org/1999/xlink">
    <!-- Generator: Sketch 58 (84663) - https://sketch.com -->
    <title>5-92AA8B</title>
    <desc>Created with Sketch.</desc>
    <g id="Symbols" stroke="none" stroke-width="1" fill="none" fill-rule="evenodd">
        <path d="M18.1911189,0.257974569 C18.4653544,0.320322965 18.6791899,0.535132675 18.7415383,0.809368201 C19.5267385,4.27262679 18.4989641,7.83622733 15.993825,10.3418535 L13.6927795,12.6424119 L13.6469924,15.5206672 C13.6318924,16.4748899 13.252444,17.3716352 12.5778148,18.0462644 L11.8384018,18.7861645 C11.6956824,18.9288839 11.5086372,19 11.321592,19 C11.1345469,19 10.9475017,18.9288839 10.8047823,18.7861645 L9.20174656,17.1831288 C8.9167949,16.89769 8.9167949,16.434948 9.20174656,16.1495092 C9.48718531,15.8645576 9.94992732,15.8645576 10.2353661,16.1495092 L11.321592,17.2362223 L11.5446824,17.013132 C11.9494599,16.6083545 12.1769341,16.0701125 12.1857019,15.4982608 L12.2363599,12.3238506 C12.2397696,12.1338828 12.3162438,11.9526828 12.4501954,11.8187312 L14.9606926,9.30872111 C16.9982187,7.2702208 17.8959382,4.41583327 17.4083543,1.59164574 C14.5827054,1.10503599 11.7302663,2.00080709 9.69176599,4.0393074 L7.18126883,6.54931746 C7.0473172,6.68375619 6.86611717,6.7602304 6.6761494,6.76364007 L3.50173924,6.81381105 C2.92940045,6.82306589 2.39164553,7.05102721 1.98735514,7.4558047 L1.76377769,7.67889505 L2.88361334,8.79873071 C3.16905209,9.08416946 3.16905209,9.54691147 2.88361334,9.83186312 C2.59817459,10.1173019 2.13591968,10.1173019 1.85048093,9.83186312 L0.213835516,8.19473061 C0.076961302,8.0578564 7.81597009e-14,7.8717854 7.81597009e-14,7.67840796 C7.81597009e-14,7.48405631 0.076961302,7.29895951 0.213835516,7.1615982 L0.953735629,6.42267228 C1.62787767,5.74755605 2.52462296,5.3681076 3.47884569,5.3525205 L6.35758806,5.3072205 L8.65863358,3.00617499 C11.1647469,0.500548799 14.7278603,-0.52576426 18.1911189,0.257974569 Z M8.84173328,12.7115797 C9.12717203,12.9970184 9.12717203,13.4592734 8.84173328,13.7447121 L6.60254907,15.9843834 C6.45982969,16.1271028 6.2727845,16.1982189 6.08573931,16.1982189 C5.89869412,16.1982189 5.71164893,16.1271028 5.56892956,15.9843834 C5.2839779,15.6989447 5.2839779,15.2362027 5.56892956,14.9507639 L7.80860087,12.7115797 C8.09403962,12.4261409 8.55629453,12.4261409 8.84173328,12.7115797 Z M6.32173774,10.1247545 C6.60717649,10.4101932 6.60717649,10.8724481 6.32173774,11.1578869 L3.44835343,14.0317583 C3.30563405,14.1744777 3.11858886,14.2455938 2.93154367,14.2455938 C2.74449848,14.2455938 2.55745329,14.1744777 2.41473392,14.0317583 C2.12978226,13.7463195 2.12978226,13.2835775 2.41473392,12.9981388 L5.28860532,10.1247545 C5.57404407,9.8393157 6.03629898,9.8393157 6.32173774,10.1247545 Z M12.4237461,4.39654423 C12.6770364,4.7102346 12.6283268,5.17054112 12.3141493,5.42431858 C12.287359,5.44575084 12.2600815,5.46961859 12.2347525,5.49494762 C12.0306589,5.6990412 11.9390847,5.97960899 11.9819492,6.26553484 C12.0072783,6.43455744 12.106646,6.74727362 12.4821977,6.94552204 C12.7174655,7.06973173 13.021901,7.06924464 13.2576559,6.94600913 C13.6332076,6.74727362 13.7325753,6.43455744 13.7579044,6.26553484 C13.8007689,5.97960899 13.7091947,5.6990412 13.5051011,5.49494762 C13.2196623,5.20950887 13.2196623,4.74725396 13.5051011,4.46181521 C13.7905398,4.17637646 14.2527947,4.17637646 14.5382335,4.46181521 C15.0662465,4.98934109 15.3146659,5.7458025 15.2026336,6.48375423 C15.0896271,7.23485757 14.6288335,7.87441573 13.9395915,8.23827707 C13.6098269,8.41217065 13.2401204,8.49936098 12.8699268,8.49936098 C12.4997332,8.49936098 12.1300267,8.41217065 11.8002621,8.23778998 C11.1110201,7.87441573 10.6502265,7.23485757 10.53722,6.48375423 C10.4251877,5.7458025 10.6736071,4.98934109 11.2016201,4.46181521 C11.2639685,4.39946681 11.3292395,4.34150229 11.3964588,4.28743454 C11.7101492,4.03511837 12.1699686,4.08285386 12.4237461,4.39654423 Z" id="5" fill="#92AA8B"></path>
    </g>
</svg>