<?xml version="1.0" encoding="UTF-8"?>
<svg width="15px" height="15px" viewBox="0 0 15 15" version="1.1" xmlns="http://www.w3.org/2000/svg" xmlns:xlink="http://www.w3.org/1999/xlink">
    <title>Combined Shape</title>
    <g id="EcoDechets-V2" stroke="none" stroke-width="1" fill="none" fill-rule="evenodd">
        <g id="Fiche-employé-V2" transform="translate(-713.000000, -162.000000)" fill="#FFFFFF">
            <g id="Group-3" transform="translate(692.000000, 150.000000)">
                <path d="M31.080819,12.8427428 C32.205053,11.7188934 34.0335197,11.7192781 35.1562152,12.8427428 C36.2796799,13.9662075 36.2796799,15.7942896 35.1562152,16.9177543 L35.1562152,16.9177543 L26.2900363,25.7839332 C26.2154207,25.8589334 26.1211896,25.9116258 26.018497,25.9366259 L26.018497,25.9366259 L21.7134849,26.9823981 C21.6681001,26.993552 21.6227154,26.9989366 21.576946,26.9989366 C21.4261764,26.9989366 21.2784836,26.9393211 21.1692526,26.8297054 C21.0269445,26.6873973 20.9688674,26.4812428 21.0161752,26.2858577 L21.0161752,26.2858577 L22.0619474,21.9804609 C22.0873321,21.8777683 22.1400245,21.7835373 22.2150248,21.7089217 L22.2150248,21.7089217 Z M35.4233313,25.8448949 C35.7417937,25.8448949 36.000256,26.1029725 36.000256,26.4218196 C36.000256,26.7406666 35.7417937,26.9987443 35.4233313,26.9987443 L35.4233313,26.9987443 L27.33177,26.9987443 C27.0133075,26.9987443 26.7548453,26.7406666 26.7548453,26.4218196 C26.7548453,26.1029725 27.0133075,25.8448949 27.33177,25.8448949 L27.33177,25.8448949 Z M34.3404436,13.6585143 C33.6665956,12.9850509 32.5704386,12.9850509 31.8965906,13.6585143 L31.8965906,13.6585143 L23.145412,22.4100775 L22.6127182,24.602776 L23.3934896,25.387009 L25.5888804,24.8535459 L32.8215932,17.6208332 C32.7777469,17.5958331 32.7319775,17.57391 32.6946697,17.5362176 L32.6946697,17.5362176 L30.9192801,15.7612126 C30.6942795,15.5362119 30.6942795,15.1708263 30.9192801,14.945441 C31.1446654,14.7200558 31.510051,14.7200558 31.7354363,14.945441 L31.7354363,14.945441 L33.5104413,16.720446 C33.5477491,16.7581384 33.5696722,16.8035232 33.5950569,16.8477541 L33.5950569,16.8477541 L34.3404436,16.1019827 C35.0139071,15.4285193 35.0139071,14.3323624 34.3404436,13.6585143 Z" id="Combined-Shape"></path>
            </g>
        </g>
    </g>
</svg>