<?xml version="1.0" encoding="UTF-8"?>
<svg width="10px" height="10px" viewBox="0 0 10 10" version="1.1" xmlns="http://www.w3.org/2000/svg" xmlns:xlink="http://www.w3.org/1999/xlink">
    <title>Combined Shape</title>
    <g id="Symbols" stroke="none" stroke-width="1" fill="none" fill-rule="evenodd">
        <g id="Group-3" transform="translate(-14.000000, -8.000000)" fill="#494B68">
            <path d="M20.7206034,8.56183331 C21.4700991,7.81259403 22.6890873,7.81285044 23.4375573,8.56183331 C24.1865402,9.31081617 24.1865402,10.529548 23.4375573,11.2785308 L23.4375573,11.2785308 L17.5267209,17.1893672 C17.4769768,17.2393678 17.4141556,17.2744964 17.3456932,17.2911632 L17.3456932,17.2911632 L14.4756606,17.9883506 C14.4454039,17.9957866 14.4151471,17.9993764 14.384634,17.9993764 C14.28412,17.9993764 14.1856573,17.9596324 14.112836,17.8865546 C14.0179631,17.7916817 13.9792447,17.6542443 14.0107836,17.5239864 L14.0107836,17.5239864 L14.707971,14.6536974 C14.7248942,14.5852351 14.7600228,14.5224138 14.8100234,14.4726697 L14.8100234,14.4726697 Z M23.6156362,17.2300087 C23.8279464,17.2300087 24.000256,17.4020619 24.000256,17.6146284 C24.000256,17.827195 23.8279464,17.9992482 23.6156362,17.9992482 L23.6156362,17.9992482 L18.221216,17.9992482 C18.0089059,17.9992482 17.8365963,17.827195 17.8365963,17.6146284 C17.8365963,17.4020619 18.0089059,17.2300087 18.221216,17.2300087 L18.221216,17.2300087 Z M22.893705,9.10568564 C22.4444691,8.65670618 21.7136916,8.65670618 21.2644557,9.10568564 L21.2644557,9.10568564 L15.4302869,14.9401109 L15.0751546,16.4019224 L15.5956734,16.9247488 L17.0592797,16.5691037 L21.8811294,11.7472541 C21.8518983,11.7305872 21.8213851,11.7159717 21.796513,11.6908432 L21.796513,11.6908432 L20.6129098,10.5074964 C20.4629081,10.3574947 20.4629081,10.1139022 20.6129098,9.9636441 C20.763168,9.81338598 21.0067605,9.81338598 21.1570186,9.9636441 L21.1570186,9.9636441 L22.3403654,11.1469909 C22.3652374,11.1721194 22.379853,11.2023761 22.3967762,11.2318636 L22.3967762,11.2318636 L22.893705,10.7346785 C23.3426844,10.285699 23.3426844,9.55492151 22.893705,9.10568564 Z" id="Combined-Shape"></path>
        </g>
    </g>
</svg>