<?xml version="1.0" encoding="UTF-8"?>
<svg width="19px" height="19px" viewBox="0 0 19 19" version="1.1" xmlns="http://www.w3.org/2000/svg" xmlns:xlink="http://www.w3.org/1999/xlink">
    <title>Combined Shape</title>
    <g id="EcoDechets-V2" stroke="none" stroke-width="1" fill="none" fill-rule="evenodd">
        <g id="Homepage-V2" transform="translate(-1012.000000, -52.000000)" fill="#494B68">
            <g id="Group-8" transform="translate(598.000000, 39.000000)">
                <path d="M426.919854,25.9363692 C427.205341,25.6513692 427.667674,25.6513692 427.953162,25.9368564 L427.953162,25.9368564 L432.768444,30.7526256 C433.053931,31.0381128 433.053931,31.5009333 432.768444,31.7859333 C432.6257,31.9286769 432.438623,32.0002923 432.251546,32.0002923 C432.064956,32.0002923 431.877879,31.9286769 431.735136,31.7859333 L431.735136,31.7859333 L426.919854,26.9701641 C426.634367,26.6846769 426.634367,26.2218564 426.919854,25.9363692 Z M421.374436,13 C425.440923,13 428.748872,16.3079487 428.748872,20.3744359 C428.748872,24.4404359 425.440923,27.7483846 421.374436,27.7483846 C417.307949,27.7483846 414,24.4404359 414,20.3744359 C414,18.5777179 414.653308,16.8472564 415.840077,15.5006923 C417.240231,13.9115128 419.257641,13 421.374436,13 Z M421.374436,14.4615385 C419.677103,14.4615385 418.059179,15.1927949 416.936231,16.4672564 C415.985256,17.546359 415.461538,18.9338462 415.461538,20.3744359 C415.461538,23.634641 418.114231,26.2868462 421.374436,26.2868462 C424.634641,26.2868462 427.287333,23.634641 427.287333,20.3744359 C427.287333,17.1137436 424.634641,14.4615385 421.374436,14.4615385 Z" id="Combined-Shape"></path>
            </g>
        </g>
    </g>
</svg>